<mxfile host="app.diagrams.net" modified="2024-06-11T08:16:46.543Z" agent="Mozilla/5.0 (Windows NT 10.0; Win64; x64) AppleWebKit/537.36 (KHTML, like Gecko) Chrome/125.0.0.0 Safari/537.36" version="24.2.5" etag="i2xaz9ZMbNOwGkmEEx_m" type="device">
  <diagram id="q180ZRIGNgB2gGkIyiqW" name="Page-1">
    <mxGraphModel dx="2327" dy="3095" grid="0" gridSize="10" guides="1" tooltips="1" connect="1" arrows="1" fold="1" page="1" pageScale="1" pageWidth="827" pageHeight="1169" math="0" shadow="0">
      <root>
        <mxCell id="0" />
        <mxCell id="1" parent="0" />
        <mxCell id="24jjbkDNGuz_GoFftkOA-256" value="" style="group" vertex="1" connectable="0" parent="1">
          <mxGeometry x="-783.9952251135467" y="-2206.001944531763" width="746.6626234837756" height="936.1742095679988" as="geometry" />
        </mxCell>
        <mxCell id="24jjbkDNGuz_GoFftkOA-29" value="" style="group" vertex="1" connectable="0" parent="24jjbkDNGuz_GoFftkOA-256">
          <mxGeometry x="249.99522511354667" y="721.001944531763" width="325.31" height="150.46" as="geometry" />
        </mxCell>
        <mxCell id="24jjbkDNGuz_GoFftkOA-30" value="Resource" style="rounded=0;whiteSpace=wrap;html=1;" vertex="1" parent="24jjbkDNGuz_GoFftkOA-29">
          <mxGeometry x="102.08" y="20" width="76.32" height="33.82" as="geometry" />
        </mxCell>
        <mxCell id="24jjbkDNGuz_GoFftkOA-31" style="rounded=0;orthogonalLoop=1;jettySize=auto;html=1;exitX=0.5;exitY=0;exitDx=0;exitDy=0;entryX=0.25;entryY=1;entryDx=0;entryDy=0;endArrow=none;endFill=0;" edge="1" parent="24jjbkDNGuz_GoFftkOA-29" source="24jjbkDNGuz_GoFftkOA-32" target="24jjbkDNGuz_GoFftkOA-30">
          <mxGeometry relative="1" as="geometry" />
        </mxCell>
        <mxCell id="24jjbkDNGuz_GoFftkOA-32" value="&lt;u&gt;&lt;font style=&quot;font-size: 11px;&quot;&gt;resourceID&lt;/font&gt;&lt;/u&gt;" style="ellipse;whiteSpace=wrap;html=1;rotation=5;" vertex="1" parent="24jjbkDNGuz_GoFftkOA-29">
          <mxGeometry x="64.18" y="103.7" width="69.12" height="21.33" as="geometry" />
        </mxCell>
        <mxCell id="24jjbkDNGuz_GoFftkOA-33" value="&lt;font style=&quot;font-size: 11px;&quot;&gt;title&lt;/font&gt;" style="ellipse;whiteSpace=wrap;html=1;rotation=5;" vertex="1" parent="24jjbkDNGuz_GoFftkOA-29">
          <mxGeometry x="109.9" y="84.4" width="54.1" height="16.6" as="geometry" />
        </mxCell>
        <mxCell id="24jjbkDNGuz_GoFftkOA-34" style="rounded=0;orthogonalLoop=1;jettySize=auto;html=1;exitX=0.5;exitY=1;exitDx=0;exitDy=0;entryX=0.5;entryY=0;entryDx=0;entryDy=0;endArrow=none;endFill=0;" edge="1" parent="24jjbkDNGuz_GoFftkOA-29" source="24jjbkDNGuz_GoFftkOA-30" target="24jjbkDNGuz_GoFftkOA-33">
          <mxGeometry relative="1" as="geometry" />
        </mxCell>
        <mxCell id="24jjbkDNGuz_GoFftkOA-35" value="&lt;font style=&quot;font-size: 11px;&quot;&gt;category&lt;/font&gt;" style="ellipse;whiteSpace=wrap;html=1;" vertex="1" parent="24jjbkDNGuz_GoFftkOA-29">
          <mxGeometry x="173.46" y="89.5" width="71.54" height="21.5" as="geometry" />
        </mxCell>
        <mxCell id="24jjbkDNGuz_GoFftkOA-36" style="rounded=0;orthogonalLoop=1;jettySize=auto;html=1;exitX=0.75;exitY=1;exitDx=0;exitDy=0;endArrow=none;endFill=0;" edge="1" parent="24jjbkDNGuz_GoFftkOA-29" source="24jjbkDNGuz_GoFftkOA-30" target="24jjbkDNGuz_GoFftkOA-35">
          <mxGeometry relative="1" as="geometry" />
        </mxCell>
        <mxCell id="24jjbkDNGuz_GoFftkOA-37" style="rounded=0;orthogonalLoop=1;jettySize=auto;html=1;exitX=0;exitY=0;exitDx=0;exitDy=0;entryX=1;entryY=1;entryDx=0;entryDy=0;endArrow=none;endFill=0;" edge="1" parent="24jjbkDNGuz_GoFftkOA-29" source="24jjbkDNGuz_GoFftkOA-38" target="24jjbkDNGuz_GoFftkOA-30">
          <mxGeometry relative="1" as="geometry" />
        </mxCell>
        <mxCell id="24jjbkDNGuz_GoFftkOA-38" value="&lt;font style=&quot;font-size: 11px;&quot;&gt;author&lt;/font&gt;" style="ellipse;whiteSpace=wrap;html=1;" vertex="1" parent="24jjbkDNGuz_GoFftkOA-29">
          <mxGeometry x="195.74" y="66.91" width="57.26" height="17.09" as="geometry" />
        </mxCell>
        <mxCell id="24jjbkDNGuz_GoFftkOA-39" style="rounded=0;orthogonalLoop=1;jettySize=auto;html=1;exitX=0.441;exitY=0;exitDx=0;exitDy=0;entryX=0.75;entryY=1;entryDx=0;entryDy=0;endArrow=none;endFill=0;exitPerimeter=0;" edge="1" parent="24jjbkDNGuz_GoFftkOA-29" source="24jjbkDNGuz_GoFftkOA-138" target="24jjbkDNGuz_GoFftkOA-30">
          <mxGeometry relative="1" as="geometry">
            <mxPoint x="201.55500000000006" y="99.07999999999993" as="sourcePoint" />
            <mxPoint x="178.39580645161266" y="36.697560975609754" as="targetPoint" />
          </mxGeometry>
        </mxCell>
        <mxCell id="24jjbkDNGuz_GoFftkOA-138" value="&lt;font style=&quot;font-size: 11px;&quot;&gt;availability&lt;/font&gt;" style="ellipse;whiteSpace=wrap;html=1;" vertex="1" parent="24jjbkDNGuz_GoFftkOA-29">
          <mxGeometry x="140.00000000000006" y="115" width="71.54" height="21.5" as="geometry" />
        </mxCell>
        <mxCell id="24jjbkDNGuz_GoFftkOA-149" style="rounded=0;orthogonalLoop=1;jettySize=auto;html=1;exitX=1;exitY=0.5;exitDx=0;exitDy=0;entryX=0;entryY=0.5;entryDx=0;entryDy=0;endArrow=none;endFill=0;" edge="1" parent="24jjbkDNGuz_GoFftkOA-29" source="24jjbkDNGuz_GoFftkOA-140" target="24jjbkDNGuz_GoFftkOA-30">
          <mxGeometry relative="1" as="geometry" />
        </mxCell>
        <mxCell id="24jjbkDNGuz_GoFftkOA-140" value="had" style="rhombus;whiteSpace=wrap;html=1;" vertex="1" parent="24jjbkDNGuz_GoFftkOA-29">
          <mxGeometry x="-27.995225113546667" y="21.000952380952185" width="40" height="30" as="geometry" />
        </mxCell>
        <mxCell id="24jjbkDNGuz_GoFftkOA-243" value="1" style="text;html=1;align=center;verticalAlign=middle;resizable=0;points=[];autosize=1;strokeColor=none;fillColor=none;" vertex="1" parent="24jjbkDNGuz_GoFftkOA-29">
          <mxGeometry x="77.18" y="36.909999999999854" width="30" height="30" as="geometry" />
        </mxCell>
        <mxCell id="24jjbkDNGuz_GoFftkOA-242" value="1" style="text;html=1;align=center;verticalAlign=middle;resizable=0;points=[];autosize=1;strokeColor=none;fillColor=none;" vertex="1" parent="24jjbkDNGuz_GoFftkOA-29">
          <mxGeometry x="77.07999999999998" y="14.909999999999854" width="30" height="30" as="geometry" />
        </mxCell>
        <mxCell id="24jjbkDNGuz_GoFftkOA-241" value="1" style="text;html=1;align=center;verticalAlign=middle;resizable=0;points=[];autosize=1;strokeColor=none;fillColor=none;" vertex="1" parent="24jjbkDNGuz_GoFftkOA-29">
          <mxGeometry x="111" y="-2" width="30" height="30" as="geometry" />
        </mxCell>
        <mxCell id="24jjbkDNGuz_GoFftkOA-240" value="1" style="text;html=1;align=center;verticalAlign=middle;resizable=0;points=[];autosize=1;strokeColor=none;fillColor=none;" vertex="1" parent="24jjbkDNGuz_GoFftkOA-29">
          <mxGeometry x="163" y="-2" width="30" height="30" as="geometry" />
        </mxCell>
        <mxCell id="24jjbkDNGuz_GoFftkOA-53" value="" style="group" vertex="1" connectable="0" parent="24jjbkDNGuz_GoFftkOA-256">
          <mxGeometry x="154.99418243039509" y="166.00117202662705" width="149.93" height="71.00708202894565" as="geometry" />
        </mxCell>
        <mxCell id="24jjbkDNGuz_GoFftkOA-54" value="&lt;font style=&quot;font-size: 11px;&quot;&gt;complaint&lt;/font&gt;" style="ellipse;whiteSpace=wrap;html=1;rotation=-5;" vertex="1" parent="24jjbkDNGuz_GoFftkOA-53">
          <mxGeometry x="-47.78" y="8.75" width="62.92" height="23.26" as="geometry" />
        </mxCell>
        <mxCell id="24jjbkDNGuz_GoFftkOA-55" style="rounded=0;orthogonalLoop=1;jettySize=auto;html=1;exitX=0.5;exitY=0;exitDx=0;exitDy=0;entryX=0.5;entryY=1;entryDx=0;entryDy=0;endArrow=none;endFill=0;" edge="1" parent="24jjbkDNGuz_GoFftkOA-53" source="24jjbkDNGuz_GoFftkOA-56" target="24jjbkDNGuz_GoFftkOA-54">
          <mxGeometry relative="1" as="geometry" />
        </mxCell>
        <mxCell id="24jjbkDNGuz_GoFftkOA-56" value="Complaint" style="rounded=0;whiteSpace=wrap;html=1;" vertex="1" parent="24jjbkDNGuz_GoFftkOA-53">
          <mxGeometry x="-8.746939447100663" y="45.328510600374216" width="65.82472443280113" height="23.71428571428572" as="geometry" />
        </mxCell>
        <mxCell id="24jjbkDNGuz_GoFftkOA-57" value="&lt;u&gt;&lt;font style=&quot;font-size: 11px;&quot;&gt;complaintId&lt;/font&gt;&lt;/u&gt;" style="ellipse;whiteSpace=wrap;html=1;rotation=5;" vertex="1" parent="24jjbkDNGuz_GoFftkOA-53">
          <mxGeometry x="20.400000000000006" y="1.1799999999999997" width="83.53" height="23.34" as="geometry" />
        </mxCell>
        <mxCell id="24jjbkDNGuz_GoFftkOA-58" style="rounded=0;orthogonalLoop=1;jettySize=auto;html=1;exitX=0.75;exitY=0;exitDx=0;exitDy=0;entryX=0.5;entryY=1;entryDx=0;entryDy=0;endArrow=none;endFill=0;" edge="1" parent="24jjbkDNGuz_GoFftkOA-53" source="24jjbkDNGuz_GoFftkOA-56" target="24jjbkDNGuz_GoFftkOA-57">
          <mxGeometry relative="1" as="geometry" />
        </mxCell>
        <mxCell id="24jjbkDNGuz_GoFftkOA-199" style="rounded=0;orthogonalLoop=1;jettySize=auto;html=1;exitX=0.25;exitY=1;exitDx=0;exitDy=0;entryX=0.5;entryY=0;entryDx=0;entryDy=0;endArrow=none;endFill=0;" edge="1" parent="24jjbkDNGuz_GoFftkOA-256" source="24jjbkDNGuz_GoFftkOA-68" target="24jjbkDNGuz_GoFftkOA-170">
          <mxGeometry relative="1" as="geometry" />
        </mxCell>
        <mxCell id="24jjbkDNGuz_GoFftkOA-204" style="rounded=0;orthogonalLoop=1;jettySize=auto;html=1;exitX=1;exitY=0.5;exitDx=0;exitDy=0;entryX=0;entryY=0.5;entryDx=0;entryDy=0;endArrow=none;endFill=0;" edge="1" parent="24jjbkDNGuz_GoFftkOA-256" source="24jjbkDNGuz_GoFftkOA-68" target="24jjbkDNGuz_GoFftkOA-172">
          <mxGeometry relative="1" as="geometry" />
        </mxCell>
        <mxCell id="24jjbkDNGuz_GoFftkOA-68" value="Librarian" style="rounded=0;whiteSpace=wrap;html=1;" vertex="1" parent="24jjbkDNGuz_GoFftkOA-256">
          <mxGeometry x="331.0242152771568" y="212.00337310319173" width="84.90435470317829" height="25.69047619047619" as="geometry" />
        </mxCell>
        <mxCell id="24jjbkDNGuz_GoFftkOA-182" style="rounded=0;orthogonalLoop=1;jettySize=auto;html=1;exitX=1;exitY=0.5;exitDx=0;exitDy=0;entryX=0;entryY=0.5;entryDx=0;entryDy=0;endArrow=none;endFill=0;" edge="1" parent="24jjbkDNGuz_GoFftkOA-256" source="24jjbkDNGuz_GoFftkOA-71" target="24jjbkDNGuz_GoFftkOA-175">
          <mxGeometry relative="1" as="geometry" />
        </mxCell>
        <mxCell id="24jjbkDNGuz_GoFftkOA-71" value="Member" style="rounded=0;whiteSpace=wrap;html=1;" vertex="1" parent="24jjbkDNGuz_GoFftkOA-256">
          <mxGeometry x="329.99421527715685" y="600.0033731031915" width="84.90435470317829" height="25.69047619047619" as="geometry" />
        </mxCell>
        <mxCell id="24jjbkDNGuz_GoFftkOA-100" value="" style="group" vertex="1" connectable="0" parent="24jjbkDNGuz_GoFftkOA-256">
          <mxGeometry y="231.0028969127152" width="277" height="277.0999999999999" as="geometry" />
        </mxCell>
        <mxCell id="24jjbkDNGuz_GoFftkOA-99" style="rounded=0;orthogonalLoop=1;jettySize=auto;html=1;exitX=0;exitY=0.25;exitDx=0;exitDy=0;entryX=1;entryY=0.5;entryDx=0;entryDy=0;endArrow=none;endFill=0;" edge="1" parent="24jjbkDNGuz_GoFftkOA-100" source="24jjbkDNGuz_GoFftkOA-2" target="24jjbkDNGuz_GoFftkOA-96">
          <mxGeometry relative="1" as="geometry" />
        </mxCell>
        <mxCell id="24jjbkDNGuz_GoFftkOA-123" style="rounded=0;orthogonalLoop=1;jettySize=auto;html=1;exitX=0;exitY=0;exitDx=0;exitDy=0;entryX=1;entryY=0.5;entryDx=0;entryDy=0;endArrow=none;endFill=0;" edge="1" parent="24jjbkDNGuz_GoFftkOA-100" source="24jjbkDNGuz_GoFftkOA-2" target="24jjbkDNGuz_GoFftkOA-120">
          <mxGeometry relative="1" as="geometry" />
        </mxCell>
        <mxCell id="24jjbkDNGuz_GoFftkOA-126" style="rounded=0;orthogonalLoop=1;jettySize=auto;html=1;exitX=0.25;exitY=0;exitDx=0;exitDy=0;entryX=1;entryY=0.5;entryDx=0;entryDy=0;endArrow=none;endFill=0;" edge="1" parent="24jjbkDNGuz_GoFftkOA-100" source="24jjbkDNGuz_GoFftkOA-2" target="24jjbkDNGuz_GoFftkOA-124">
          <mxGeometry relative="1" as="geometry" />
        </mxCell>
        <mxCell id="24jjbkDNGuz_GoFftkOA-197" style="rounded=0;orthogonalLoop=1;jettySize=auto;html=1;exitX=0.5;exitY=0;exitDx=0;exitDy=0;entryX=0.5;entryY=1;entryDx=0;entryDy=0;endArrow=none;endFill=0;" edge="1" parent="24jjbkDNGuz_GoFftkOA-100" source="24jjbkDNGuz_GoFftkOA-2" target="24jjbkDNGuz_GoFftkOA-196">
          <mxGeometry relative="1" as="geometry" />
        </mxCell>
        <mxCell id="24jjbkDNGuz_GoFftkOA-206" style="rounded=0;orthogonalLoop=1;jettySize=auto;html=1;exitX=1;exitY=0.5;exitDx=0;exitDy=0;entryX=0;entryY=0.5;entryDx=0;entryDy=0;endArrow=none;endFill=0;shape=link;" edge="1" parent="24jjbkDNGuz_GoFftkOA-100" source="24jjbkDNGuz_GoFftkOA-2" target="24jjbkDNGuz_GoFftkOA-205">
          <mxGeometry relative="1" as="geometry" />
        </mxCell>
        <mxCell id="24jjbkDNGuz_GoFftkOA-2" value="User" style="rounded=0;whiteSpace=wrap;html=1;" vertex="1" parent="24jjbkDNGuz_GoFftkOA-100">
          <mxGeometry x="140.894026952309" y="168.96428571428578" width="76.31852108150856" height="29.642857142857146" as="geometry" />
        </mxCell>
        <mxCell id="24jjbkDNGuz_GoFftkOA-98" style="rounded=0;orthogonalLoop=1;jettySize=auto;html=1;exitX=0.5;exitY=1;exitDx=0;exitDy=0;entryX=0.5;entryY=0;entryDx=0;entryDy=0;endArrow=none;endFill=0;" edge="1" parent="24jjbkDNGuz_GoFftkOA-100" source="24jjbkDNGuz_GoFftkOA-3" target="24jjbkDNGuz_GoFftkOA-94">
          <mxGeometry relative="1" as="geometry" />
        </mxCell>
        <mxCell id="24jjbkDNGuz_GoFftkOA-3" value="&lt;font style=&quot;font-size: 11px;&quot;&gt;name&lt;/font&gt;" style="ellipse;whiteSpace=wrap;html=1;" vertex="1" parent="24jjbkDNGuz_GoFftkOA-100">
          <mxGeometry x="46.99" y="204.52" width="53.01" height="14.48" as="geometry" />
        </mxCell>
        <mxCell id="24jjbkDNGuz_GoFftkOA-4" style="rounded=0;orthogonalLoop=1;jettySize=auto;html=1;exitX=0;exitY=0.75;exitDx=0;exitDy=0;entryX=0.726;entryY=0.072;entryDx=0;entryDy=0;endArrow=none;endFill=0;entryPerimeter=0;" edge="1" parent="24jjbkDNGuz_GoFftkOA-100" source="24jjbkDNGuz_GoFftkOA-2" target="24jjbkDNGuz_GoFftkOA-3">
          <mxGeometry relative="1" as="geometry" />
        </mxCell>
        <mxCell id="24jjbkDNGuz_GoFftkOA-5" value="&lt;font style=&quot;font-size: 11px;&quot;&gt;email&lt;/font&gt;" style="ellipse;whiteSpace=wrap;html=1;" vertex="1" parent="24jjbkDNGuz_GoFftkOA-100">
          <mxGeometry x="52" y="149" width="50.18" height="17.35" as="geometry" />
        </mxCell>
        <mxCell id="24jjbkDNGuz_GoFftkOA-6" style="rounded=0;orthogonalLoop=1;jettySize=auto;html=1;exitX=0;exitY=0.25;exitDx=0;exitDy=0;entryX=1;entryY=0.5;entryDx=0;entryDy=0;endArrow=none;endFill=0;" edge="1" parent="24jjbkDNGuz_GoFftkOA-100" source="24jjbkDNGuz_GoFftkOA-2" target="24jjbkDNGuz_GoFftkOA-5">
          <mxGeometry relative="1" as="geometry" />
        </mxCell>
        <mxCell id="24jjbkDNGuz_GoFftkOA-7" style="rounded=0;orthogonalLoop=1;jettySize=auto;html=1;exitX=1;exitY=0.5;exitDx=0;exitDy=0;entryX=0;entryY=0.5;entryDx=0;entryDy=0;endArrow=none;endFill=0;" edge="1" parent="24jjbkDNGuz_GoFftkOA-100" source="24jjbkDNGuz_GoFftkOA-8" target="24jjbkDNGuz_GoFftkOA-2">
          <mxGeometry relative="1" as="geometry" />
        </mxCell>
        <mxCell id="24jjbkDNGuz_GoFftkOA-8" value="&lt;font style=&quot;font-size: 11px;&quot;&gt;phoneNO&lt;/font&gt;" style="ellipse;whiteSpace=wrap;html=1;" vertex="1" parent="24jjbkDNGuz_GoFftkOA-100">
          <mxGeometry x="-1.8599999999999994" y="164.29" width="67.86" height="18.71" as="geometry" />
        </mxCell>
        <mxCell id="24jjbkDNGuz_GoFftkOA-11" value="&lt;u&gt;&lt;font style=&quot;font-size: 11px;&quot;&gt;userId&lt;/font&gt;&lt;/u&gt;" style="ellipse;whiteSpace=wrap;html=1;" vertex="1" parent="24jjbkDNGuz_GoFftkOA-100">
          <mxGeometry x="62" y="181" width="60" height="17" as="geometry" />
        </mxCell>
        <mxCell id="24jjbkDNGuz_GoFftkOA-12" style="rounded=0;orthogonalLoop=1;jettySize=auto;html=1;entryX=1;entryY=0.5;entryDx=0;entryDy=0;endArrow=none;endFill=0;exitX=0;exitY=0.75;exitDx=0;exitDy=0;" edge="1" parent="24jjbkDNGuz_GoFftkOA-100" source="24jjbkDNGuz_GoFftkOA-2" target="24jjbkDNGuz_GoFftkOA-11">
          <mxGeometry relative="1" as="geometry">
            <mxPoint x="283.0372724666186" y="249.9880952380954" as="sourcePoint" />
          </mxGeometry>
        </mxCell>
        <mxCell id="24jjbkDNGuz_GoFftkOA-96" value="&lt;font style=&quot;font-size: 11px;&quot;&gt;password&lt;/font&gt;" style="ellipse;whiteSpace=wrap;html=1;" vertex="1" parent="24jjbkDNGuz_GoFftkOA-100">
          <mxGeometry x="21.209999999999994" y="128" width="68.69" height="17.1" as="geometry" />
        </mxCell>
        <mxCell id="24jjbkDNGuz_GoFftkOA-95" value="&lt;font style=&quot;font-size: 11px;&quot;&gt;firstName&lt;/font&gt;" style="ellipse;whiteSpace=wrap;html=1;rotation=5;" vertex="1" parent="24jjbkDNGuz_GoFftkOA-100">
          <mxGeometry x="2.09" y="222.65" width="68.69" height="17.35" as="geometry" />
        </mxCell>
        <mxCell id="24jjbkDNGuz_GoFftkOA-94" value="&lt;font style=&quot;font-size: 11px;&quot;&gt;lastName&lt;/font&gt;" style="ellipse;whiteSpace=wrap;html=1;rotation=-5;" vertex="1" parent="24jjbkDNGuz_GoFftkOA-100">
          <mxGeometry x="40.08" y="241.37" width="68.69" height="15.63" as="geometry" />
        </mxCell>
        <mxCell id="24jjbkDNGuz_GoFftkOA-97" style="rounded=0;orthogonalLoop=1;jettySize=auto;html=1;exitX=0;exitY=1;exitDx=0;exitDy=0;entryX=0.646;entryY=0.047;entryDx=0;entryDy=0;entryPerimeter=0;endArrow=none;endFill=0;" edge="1" parent="24jjbkDNGuz_GoFftkOA-100" source="24jjbkDNGuz_GoFftkOA-3" target="24jjbkDNGuz_GoFftkOA-95">
          <mxGeometry relative="1" as="geometry" />
        </mxCell>
        <mxCell id="24jjbkDNGuz_GoFftkOA-120" value="had" style="rhombus;whiteSpace=wrap;html=1;" vertex="1" parent="24jjbkDNGuz_GoFftkOA-100">
          <mxGeometry x="11" y="61" width="40" height="30" as="geometry" />
        </mxCell>
        <mxCell id="24jjbkDNGuz_GoFftkOA-124" value="had" style="rhombus;whiteSpace=wrap;html=1;" vertex="1" parent="24jjbkDNGuz_GoFftkOA-100">
          <mxGeometry x="91" y="34" width="44" height="30" as="geometry" />
        </mxCell>
        <mxCell id="24jjbkDNGuz_GoFftkOA-196" value="had" style="rhombus;whiteSpace=wrap;html=1;" vertex="1" parent="24jjbkDNGuz_GoFftkOA-100">
          <mxGeometry x="157" y="73" width="44" height="30" as="geometry" />
        </mxCell>
        <mxCell id="24jjbkDNGuz_GoFftkOA-205" value="d" style="ellipse;whiteSpace=wrap;html=1;aspect=fixed;" vertex="1" parent="24jjbkDNGuz_GoFftkOA-100">
          <mxGeometry x="237" y="172.29" width="21.03" height="21.03" as="geometry" />
        </mxCell>
        <mxCell id="24jjbkDNGuz_GoFftkOA-228" value="1" style="text;html=1;align=center;verticalAlign=middle;resizable=0;points=[];autosize=1;strokeColor=none;fillColor=none;" vertex="1" parent="24jjbkDNGuz_GoFftkOA-100">
          <mxGeometry x="126.89522511354664" y="145.99904761904781" width="30" height="30" as="geometry" />
        </mxCell>
        <mxCell id="24jjbkDNGuz_GoFftkOA-227" value="1" style="text;html=1;align=center;verticalAlign=middle;resizable=0;points=[];autosize=1;strokeColor=none;fillColor=none;" vertex="1" parent="24jjbkDNGuz_GoFftkOA-100">
          <mxGeometry x="148.89522511354664" y="147.28904761904778" width="30" height="30" as="geometry" />
        </mxCell>
        <mxCell id="24jjbkDNGuz_GoFftkOA-226" value="1" style="text;html=1;align=center;verticalAlign=middle;resizable=0;points=[];autosize=1;strokeColor=none;fillColor=none;" vertex="1" parent="24jjbkDNGuz_GoFftkOA-100">
          <mxGeometry x="168.99522511354667" y="147.28904761904778" width="30" height="30" as="geometry" />
        </mxCell>
        <mxCell id="24jjbkDNGuz_GoFftkOA-217" value="m" style="text;html=1;align=center;verticalAlign=middle;resizable=0;points=[];autosize=1;strokeColor=none;fillColor=none;" vertex="1" parent="24jjbkDNGuz_GoFftkOA-100">
          <mxGeometry x="171.99522511354667" y="-1.0009523809521852" width="30" height="30" as="geometry" />
        </mxCell>
        <mxCell id="24jjbkDNGuz_GoFftkOA-225" value="1" style="text;html=1;align=center;verticalAlign=middle;resizable=0;points=[];autosize=1;strokeColor=none;fillColor=none;" vertex="1" parent="24jjbkDNGuz_GoFftkOA-100">
          <mxGeometry x="126.89522511354664" y="196.31904761904775" width="30" height="30" as="geometry" />
        </mxCell>
        <mxCell id="24jjbkDNGuz_GoFftkOA-224" value="1" style="text;html=1;align=center;verticalAlign=middle;resizable=0;points=[];autosize=1;strokeColor=none;fillColor=none;" vertex="1" parent="24jjbkDNGuz_GoFftkOA-100">
          <mxGeometry x="148.89522511354664" y="196.5190476190478" width="30" height="30" as="geometry" />
        </mxCell>
        <mxCell id="24jjbkDNGuz_GoFftkOA-223" value="1" style="text;html=1;align=center;verticalAlign=middle;resizable=0;points=[];autosize=1;strokeColor=none;fillColor=none;" vertex="1" parent="24jjbkDNGuz_GoFftkOA-100">
          <mxGeometry x="170.89522511354664" y="196.7590476190478" width="30" height="30" as="geometry" />
        </mxCell>
        <mxCell id="24jjbkDNGuz_GoFftkOA-249" style="rounded=0;orthogonalLoop=1;jettySize=auto;html=1;exitX=0;exitY=0.5;exitDx=0;exitDy=0;entryX=1;entryY=0;entryDx=0;entryDy=0;endArrow=none;endFill=0;" edge="1" parent="24jjbkDNGuz_GoFftkOA-100" source="24jjbkDNGuz_GoFftkOA-248" target="24jjbkDNGuz_GoFftkOA-2">
          <mxGeometry relative="1" as="geometry" />
        </mxCell>
        <mxCell id="24jjbkDNGuz_GoFftkOA-248" value="had" style="rhombus;whiteSpace=wrap;html=1;" vertex="1" parent="24jjbkDNGuz_GoFftkOA-100">
          <mxGeometry x="217" y="7" width="40" height="30" as="geometry" />
        </mxCell>
        <mxCell id="24jjbkDNGuz_GoFftkOA-252" value="1" style="text;html=1;align=center;verticalAlign=middle;resizable=0;points=[];autosize=1;strokeColor=none;fillColor=none;" vertex="1" parent="24jjbkDNGuz_GoFftkOA-100">
          <mxGeometry x="197.2152251135467" y="146.96904761904784" width="30" height="30" as="geometry" />
        </mxCell>
        <mxCell id="24jjbkDNGuz_GoFftkOA-106" value="" style="group" vertex="1" connectable="0" parent="24jjbkDNGuz_GoFftkOA-256">
          <mxGeometry x="334.00001813486745" y="118.99742072223899" width="220.7866007416563" height="90" as="geometry" />
        </mxCell>
        <mxCell id="24jjbkDNGuz_GoFftkOA-73" value="dateCreated" style="ellipse;whiteSpace=wrap;html=1;" vertex="1" parent="24jjbkDNGuz_GoFftkOA-106">
          <mxGeometry x="114.48520697867934" y="52.41452380952387" width="80" height="20" as="geometry" />
        </mxCell>
        <mxCell id="24jjbkDNGuz_GoFftkOA-72" value="body" style="ellipse;whiteSpace=wrap;html=1;rotation=10;" vertex="1" parent="24jjbkDNGuz_GoFftkOA-106">
          <mxGeometry x="136.50520697867927" y="-11.945476190476256" width="63.88" height="17.36" as="geometry" />
        </mxCell>
        <mxCell id="24jjbkDNGuz_GoFftkOA-47" value="title" style="ellipse;whiteSpace=wrap;html=1;" vertex="1" parent="24jjbkDNGuz_GoFftkOA-106">
          <mxGeometry x="155.91" y="13.969999999999999" width="63.88" height="16.44" as="geometry" />
        </mxCell>
        <mxCell id="24jjbkDNGuz_GoFftkOA-48" style="rounded=0;orthogonalLoop=1;jettySize=auto;html=1;exitX=1;exitY=0.75;exitDx=0;exitDy=0;entryX=0;entryY=0.5;entryDx=0;entryDy=0;endArrow=none;endFill=0;" edge="1" parent="24jjbkDNGuz_GoFftkOA-106" source="24jjbkDNGuz_GoFftkOA-51" target="24jjbkDNGuz_GoFftkOA-47">
          <mxGeometry relative="1" as="geometry" />
        </mxCell>
        <mxCell id="24jjbkDNGuz_GoFftkOA-49" value="&lt;u&gt;articleId&lt;/u&gt;" style="ellipse;whiteSpace=wrap;html=1;rotation=0;" vertex="1" parent="24jjbkDNGuz_GoFftkOA-106">
          <mxGeometry x="95.8393572311495" y="-37" width="64.9472435105068" height="20.75" as="geometry" />
        </mxCell>
        <mxCell id="24jjbkDNGuz_GoFftkOA-50" style="rounded=0;orthogonalLoop=1;jettySize=auto;html=1;entryX=0.75;entryY=0;entryDx=0;entryDy=0;endArrow=none;endFill=0;exitX=0.5;exitY=1;exitDx=0;exitDy=0;" edge="1" parent="24jjbkDNGuz_GoFftkOA-106" source="24jjbkDNGuz_GoFftkOA-49" target="24jjbkDNGuz_GoFftkOA-51">
          <mxGeometry relative="1" as="geometry">
            <mxPoint x="169.19520697867927" y="17.41452380952387" as="sourcePoint" />
          </mxGeometry>
        </mxCell>
        <mxCell id="24jjbkDNGuz_GoFftkOA-51" value="Article" style="rounded=0;whiteSpace=wrap;html=1;" vertex="1" parent="24jjbkDNGuz_GoFftkOA-106">
          <mxGeometry x="58.38" y="9.06" width="76.32" height="30.94" as="geometry" />
        </mxCell>
        <mxCell id="24jjbkDNGuz_GoFftkOA-104" style="rounded=0;orthogonalLoop=1;jettySize=auto;html=1;exitX=1;exitY=0;exitDx=0;exitDy=0;entryX=0;entryY=1;entryDx=0;entryDy=0;endArrow=none;endFill=0;" edge="1" parent="24jjbkDNGuz_GoFftkOA-106" source="24jjbkDNGuz_GoFftkOA-51" target="24jjbkDNGuz_GoFftkOA-72">
          <mxGeometry relative="1" as="geometry" />
        </mxCell>
        <mxCell id="24jjbkDNGuz_GoFftkOA-105" style="rounded=0;orthogonalLoop=1;jettySize=auto;html=1;exitX=1;exitY=1;exitDx=0;exitDy=0;entryX=0.5;entryY=0;entryDx=0;entryDy=0;endArrow=none;endFill=0;" edge="1" parent="24jjbkDNGuz_GoFftkOA-106" source="24jjbkDNGuz_GoFftkOA-51" target="24jjbkDNGuz_GoFftkOA-73">
          <mxGeometry relative="1" as="geometry" />
        </mxCell>
        <mxCell id="24jjbkDNGuz_GoFftkOA-254" value="m" style="text;html=1;align=center;verticalAlign=middle;resizable=0;points=[];autosize=1;strokeColor=none;fillColor=none;" vertex="1" parent="24jjbkDNGuz_GoFftkOA-106">
          <mxGeometry x="47.99520697867922" y="31.004523809524017" width="30" height="30" as="geometry" />
        </mxCell>
        <mxCell id="24jjbkDNGuz_GoFftkOA-253" value="1" style="text;html=1;align=center;verticalAlign=middle;resizable=0;points=[];autosize=1;strokeColor=none;fillColor=none;" vertex="1" parent="24jjbkDNGuz_GoFftkOA-106">
          <mxGeometry x="80.37520697867922" y="-14.025476190476184" width="30" height="30" as="geometry" />
        </mxCell>
        <mxCell id="24jjbkDNGuz_GoFftkOA-209" value="1" style="text;html=1;align=center;verticalAlign=middle;resizable=0;points=[];autosize=1;strokeColor=none;fillColor=none;" vertex="1" parent="24jjbkDNGuz_GoFftkOA-106">
          <mxGeometry x="36.99520697867922" y="1.0045238095240165" width="30" height="30" as="geometry" />
        </mxCell>
        <mxCell id="24jjbkDNGuz_GoFftkOA-107" value="" style="group" vertex="1" connectable="0" parent="24jjbkDNGuz_GoFftkOA-256">
          <mxGeometry x="10.993363487221586" width="202.16372325265024" height="81.001944531763" as="geometry" />
        </mxCell>
        <mxCell id="24jjbkDNGuz_GoFftkOA-76" value="&lt;font style=&quot;font-size: 11px;&quot;&gt;&lt;u&gt;articleCommentId&lt;/u&gt;&lt;/font&gt;" style="ellipse;whiteSpace=wrap;html=1;rotation=5;" vertex="1" parent="24jjbkDNGuz_GoFftkOA-107">
          <mxGeometry x="63.03" y="14.42" width="117" height="22.26" as="geometry" />
        </mxCell>
        <mxCell id="24jjbkDNGuz_GoFftkOA-63" value="ArticleComment" style="rounded=0;whiteSpace=wrap;html=1;" vertex="1" parent="24jjbkDNGuz_GoFftkOA-107">
          <mxGeometry x="0.17" y="40.11" width="89.83" height="29.89" as="geometry" />
        </mxCell>
        <mxCell id="24jjbkDNGuz_GoFftkOA-77" value="&lt;font style=&quot;font-size: 11px;&quot;&gt;comment&lt;/font&gt;" style="ellipse;whiteSpace=wrap;html=1;rotation=-5;" vertex="1" parent="24jjbkDNGuz_GoFftkOA-107">
          <mxGeometry x="-4" y="5" width="69" height="19" as="geometry" />
        </mxCell>
        <mxCell id="24jjbkDNGuz_GoFftkOA-102" style="rounded=0;orthogonalLoop=1;jettySize=auto;html=1;exitX=0.5;exitY=1;exitDx=0;exitDy=0;entryX=0.75;entryY=0;entryDx=0;entryDy=0;endArrow=none;endFill=0;" edge="1" parent="24jjbkDNGuz_GoFftkOA-107" source="24jjbkDNGuz_GoFftkOA-77" target="24jjbkDNGuz_GoFftkOA-63">
          <mxGeometry relative="1" as="geometry" />
        </mxCell>
        <mxCell id="24jjbkDNGuz_GoFftkOA-101" style="rounded=0;orthogonalLoop=1;jettySize=auto;html=1;exitX=0.5;exitY=1;exitDx=0;exitDy=0;entryX=1;entryY=0;entryDx=0;entryDy=0;endArrow=none;endFill=0;" edge="1" parent="24jjbkDNGuz_GoFftkOA-107" source="24jjbkDNGuz_GoFftkOA-76" target="24jjbkDNGuz_GoFftkOA-63">
          <mxGeometry relative="1" as="geometry" />
        </mxCell>
        <mxCell id="24jjbkDNGuz_GoFftkOA-251" value="m" style="text;html=1;align=center;verticalAlign=middle;resizable=0;points=[];autosize=1;strokeColor=none;fillColor=none;" vertex="1" parent="24jjbkDNGuz_GoFftkOA-107">
          <mxGeometry x="83.00186162632508" y="47.001944531763" width="30" height="30" as="geometry" />
        </mxCell>
        <mxCell id="24jjbkDNGuz_GoFftkOA-110" style="rounded=0;orthogonalLoop=1;jettySize=auto;html=1;exitX=1;exitY=0.5;exitDx=0;exitDy=0;entryX=0.5;entryY=0;entryDx=0;entryDy=0;endArrow=none;endFill=0;" edge="1" parent="24jjbkDNGuz_GoFftkOA-256" source="24jjbkDNGuz_GoFftkOA-108" target="24jjbkDNGuz_GoFftkOA-51">
          <mxGeometry relative="1" as="geometry" />
        </mxCell>
        <mxCell id="24jjbkDNGuz_GoFftkOA-108" value="had" style="rhombus;whiteSpace=wrap;html=1;" vertex="1" parent="24jjbkDNGuz_GoFftkOA-256">
          <mxGeometry x="285.5552251135466" y="41.001944531763" width="44.44" height="31" as="geometry" />
        </mxCell>
        <mxCell id="24jjbkDNGuz_GoFftkOA-109" style="rounded=0;orthogonalLoop=1;jettySize=auto;html=1;exitX=1;exitY=0.5;exitDx=0;exitDy=0;entryX=0;entryY=0.5;entryDx=0;entryDy=0;endArrow=none;endFill=0;" edge="1" parent="24jjbkDNGuz_GoFftkOA-256" source="24jjbkDNGuz_GoFftkOA-63" target="24jjbkDNGuz_GoFftkOA-108">
          <mxGeometry relative="1" as="geometry" />
        </mxCell>
        <mxCell id="24jjbkDNGuz_GoFftkOA-113" value="" style="group" vertex="1" connectable="0" parent="24jjbkDNGuz_GoFftkOA-256">
          <mxGeometry x="51.99264378438056" y="89.00462033443137" width="184.8326708881576" height="68.25" as="geometry" />
        </mxCell>
        <mxCell id="24jjbkDNGuz_GoFftkOA-62" value="ArticleRating" style="rounded=0;whiteSpace=wrap;html=1;" vertex="1" parent="24jjbkDNGuz_GoFftkOA-113">
          <mxGeometry x="37.38" y="42.56" width="73.62" height="25.69" as="geometry" />
        </mxCell>
        <mxCell id="24jjbkDNGuz_GoFftkOA-78" value="&lt;font style=&quot;font-size: 11px;&quot;&gt;&lt;u&gt;articleRatingId&lt;/u&gt;&lt;/font&gt;" style="ellipse;whiteSpace=wrap;html=1;rotation=-5;" vertex="1" parent="24jjbkDNGuz_GoFftkOA-113">
          <mxGeometry x="1.6799999999999997" y="10.62" width="100.35" height="20" as="geometry" />
        </mxCell>
        <mxCell id="24jjbkDNGuz_GoFftkOA-79" value="&lt;font style=&quot;font-size: 11px;&quot;&gt;rating&lt;/font&gt;" style="ellipse;whiteSpace=wrap;html=1;rotation=5;" vertex="1" parent="24jjbkDNGuz_GoFftkOA-113">
          <mxGeometry x="100.43" y="18.01" width="49.6" height="20.34" as="geometry" />
        </mxCell>
        <mxCell id="24jjbkDNGuz_GoFftkOA-111" style="rounded=0;orthogonalLoop=1;jettySize=auto;html=1;exitX=0.5;exitY=1;exitDx=0;exitDy=0;entryX=0.25;entryY=0;entryDx=0;entryDy=0;endArrow=none;endFill=0;" edge="1" parent="24jjbkDNGuz_GoFftkOA-113" source="24jjbkDNGuz_GoFftkOA-78" target="24jjbkDNGuz_GoFftkOA-62">
          <mxGeometry relative="1" as="geometry" />
        </mxCell>
        <mxCell id="24jjbkDNGuz_GoFftkOA-112" style="rounded=0;orthogonalLoop=1;jettySize=auto;html=1;exitX=1;exitY=0;exitDx=0;exitDy=0;entryX=0.5;entryY=1;entryDx=0;entryDy=0;endArrow=none;endFill=0;" edge="1" parent="24jjbkDNGuz_GoFftkOA-113" source="24jjbkDNGuz_GoFftkOA-62" target="24jjbkDNGuz_GoFftkOA-79">
          <mxGeometry relative="1" as="geometry" />
        </mxCell>
        <mxCell id="24jjbkDNGuz_GoFftkOA-121" style="rounded=0;orthogonalLoop=1;jettySize=auto;html=1;exitX=0;exitY=1;exitDx=0;exitDy=0;entryX=0;entryY=0.5;entryDx=0;entryDy=0;endArrow=none;endFill=0;" edge="1" parent="24jjbkDNGuz_GoFftkOA-256" source="24jjbkDNGuz_GoFftkOA-63" target="24jjbkDNGuz_GoFftkOA-120">
          <mxGeometry relative="1" as="geometry" />
        </mxCell>
        <mxCell id="24jjbkDNGuz_GoFftkOA-125" style="rounded=0;orthogonalLoop=1;jettySize=auto;html=1;exitX=0;exitY=1;exitDx=0;exitDy=0;entryX=0;entryY=0.5;entryDx=0;entryDy=0;endArrow=none;endFill=0;" edge="1" parent="24jjbkDNGuz_GoFftkOA-256" source="24jjbkDNGuz_GoFftkOA-62" target="24jjbkDNGuz_GoFftkOA-124">
          <mxGeometry relative="1" as="geometry" />
        </mxCell>
        <mxCell id="24jjbkDNGuz_GoFftkOA-129" style="rounded=0;orthogonalLoop=1;jettySize=auto;html=1;exitX=1;exitY=0.5;exitDx=0;exitDy=0;entryX=0;entryY=0.5;entryDx=0;entryDy=0;endArrow=none;endFill=0;" edge="1" parent="24jjbkDNGuz_GoFftkOA-256" source="24jjbkDNGuz_GoFftkOA-127" target="24jjbkDNGuz_GoFftkOA-51">
          <mxGeometry relative="1" as="geometry" />
        </mxCell>
        <mxCell id="24jjbkDNGuz_GoFftkOA-127" value="had" style="rhombus;whiteSpace=wrap;html=1;" vertex="1" parent="24jjbkDNGuz_GoFftkOA-256">
          <mxGeometry x="291.34000000000003" y="129.0028969127152" width="40" height="30" as="geometry" />
        </mxCell>
        <mxCell id="24jjbkDNGuz_GoFftkOA-128" style="rounded=0;orthogonalLoop=1;jettySize=auto;html=1;exitX=1;exitY=0.5;exitDx=0;exitDy=0;entryX=0;entryY=0.5;entryDx=0;entryDy=0;endArrow=none;endFill=0;" edge="1" parent="24jjbkDNGuz_GoFftkOA-256" source="24jjbkDNGuz_GoFftkOA-62" target="24jjbkDNGuz_GoFftkOA-127">
          <mxGeometry relative="1" as="geometry" />
        </mxCell>
        <mxCell id="24jjbkDNGuz_GoFftkOA-132" value="" style="group" vertex="1" connectable="0" parent="24jjbkDNGuz_GoFftkOA-256">
          <mxGeometry x="7.995225113546667" y="840.001944531763" width="148.0790180267196" height="96.17226503623579" as="geometry" />
        </mxCell>
        <mxCell id="24jjbkDNGuz_GoFftkOA-65" value="ResourceComment" style="rounded=0;whiteSpace=wrap;html=1;" vertex="1" parent="24jjbkDNGuz_GoFftkOA-132">
          <mxGeometry x="1" width="110" height="26.76" as="geometry" />
        </mxCell>
        <mxCell id="24jjbkDNGuz_GoFftkOA-74" value="&lt;font style=&quot;font-size: 11px;&quot;&gt;&lt;u&gt;resourceCommentId&lt;/u&gt;&lt;/font&gt;" style="ellipse;whiteSpace=wrap;html=1;rotation=-5;" vertex="1" parent="24jjbkDNGuz_GoFftkOA-132">
          <mxGeometry x="27" y="61" width="120" height="30" as="geometry" />
        </mxCell>
        <mxCell id="24jjbkDNGuz_GoFftkOA-75" value="&lt;font style=&quot;font-size: 11px;&quot;&gt;comment&lt;/font&gt;" style="ellipse;whiteSpace=wrap;html=1;rotation=0;" vertex="1" parent="24jjbkDNGuz_GoFftkOA-132">
          <mxGeometry y="39" width="68.69" height="22.72" as="geometry" />
        </mxCell>
        <mxCell id="24jjbkDNGuz_GoFftkOA-131" style="rounded=0;orthogonalLoop=1;jettySize=auto;html=1;exitX=0.587;exitY=1.019;exitDx=0;exitDy=0;entryX=0.5;entryY=0;entryDx=0;entryDy=0;endArrow=none;endFill=0;exitPerimeter=0;" edge="1" parent="24jjbkDNGuz_GoFftkOA-132" source="24jjbkDNGuz_GoFftkOA-65" target="24jjbkDNGuz_GoFftkOA-74">
          <mxGeometry relative="1" as="geometry" />
        </mxCell>
        <mxCell id="24jjbkDNGuz_GoFftkOA-130" style="rounded=0;orthogonalLoop=1;jettySize=auto;html=1;exitX=0.25;exitY=1;exitDx=0;exitDy=0;entryX=0.5;entryY=0;entryDx=0;entryDy=0;endArrow=none;endFill=0;" edge="1" parent="24jjbkDNGuz_GoFftkOA-132" source="24jjbkDNGuz_GoFftkOA-65" target="24jjbkDNGuz_GoFftkOA-75">
          <mxGeometry relative="1" as="geometry" />
        </mxCell>
        <mxCell id="24jjbkDNGuz_GoFftkOA-134" style="rounded=0;orthogonalLoop=1;jettySize=auto;html=1;entryX=0;entryY=1;entryDx=0;entryDy=0;endArrow=none;endFill=0;exitX=1;exitY=0.5;exitDx=0;exitDy=0;" edge="1" parent="24jjbkDNGuz_GoFftkOA-256" source="24jjbkDNGuz_GoFftkOA-133" target="24jjbkDNGuz_GoFftkOA-2">
          <mxGeometry relative="1" as="geometry" />
        </mxCell>
        <mxCell id="24jjbkDNGuz_GoFftkOA-135" style="rounded=0;orthogonalLoop=1;jettySize=auto;html=1;exitX=0;exitY=0.5;exitDx=0;exitDy=0;entryX=0;entryY=0;entryDx=0;entryDy=0;endArrow=none;endFill=0;" edge="1" parent="24jjbkDNGuz_GoFftkOA-256" source="24jjbkDNGuz_GoFftkOA-133" target="24jjbkDNGuz_GoFftkOA-65">
          <mxGeometry relative="1" as="geometry" />
        </mxCell>
        <mxCell id="24jjbkDNGuz_GoFftkOA-133" value="put" style="rhombus;whiteSpace=wrap;html=1;" vertex="1" parent="24jjbkDNGuz_GoFftkOA-256">
          <mxGeometry x="10" y="658.0028969127152" width="40" height="30" as="geometry" />
        </mxCell>
        <mxCell id="24jjbkDNGuz_GoFftkOA-139" value="" style="group" vertex="1" connectable="0" parent="24jjbkDNGuz_GoFftkOA-256">
          <mxGeometry x="20.28706955670077" y="742.001944531763" width="161.7081555568459" height="119" as="geometry" />
        </mxCell>
        <mxCell id="24jjbkDNGuz_GoFftkOA-64" value="ResourceRating" style="rounded=0;whiteSpace=wrap;html=1;" vertex="1" parent="24jjbkDNGuz_GoFftkOA-139">
          <mxGeometry x="55.448155556845904" width="106.26" height="30" as="geometry" />
        </mxCell>
        <mxCell id="24jjbkDNGuz_GoFftkOA-92" value="&lt;font style=&quot;font-size: 11px;&quot;&gt;&lt;u&gt;resourceRatingId&lt;/u&gt;&lt;/font&gt;" style="ellipse;whiteSpace=wrap;html=1;rotation=5;" vertex="1" parent="24jjbkDNGuz_GoFftkOA-139">
          <mxGeometry x="1.1181555568459771" y="39" width="99.43" height="30" as="geometry" />
        </mxCell>
        <mxCell id="24jjbkDNGuz_GoFftkOA-93" value="&lt;font style=&quot;font-size: 11px;&quot;&gt;rating&lt;/font&gt;" style="ellipse;whiteSpace=wrap;html=1;rotation=-5;" vertex="1" parent="24jjbkDNGuz_GoFftkOA-139">
          <mxGeometry x="91.53815555684594" y="64" width="60" height="20" as="geometry" />
        </mxCell>
        <mxCell id="24jjbkDNGuz_GoFftkOA-136" style="rounded=0;orthogonalLoop=1;jettySize=auto;html=1;exitX=0;exitY=1;exitDx=0;exitDy=0;entryX=0.5;entryY=0;entryDx=0;entryDy=0;endArrow=none;endFill=0;" edge="1" parent="24jjbkDNGuz_GoFftkOA-139" source="24jjbkDNGuz_GoFftkOA-64" target="24jjbkDNGuz_GoFftkOA-92">
          <mxGeometry relative="1" as="geometry" />
        </mxCell>
        <mxCell id="24jjbkDNGuz_GoFftkOA-137" style="rounded=0;orthogonalLoop=1;jettySize=auto;html=1;exitX=0.5;exitY=1;exitDx=0;exitDy=0;entryX=0.5;entryY=0;entryDx=0;entryDy=0;endArrow=none;endFill=0;" edge="1" parent="24jjbkDNGuz_GoFftkOA-139" source="24jjbkDNGuz_GoFftkOA-64" target="24jjbkDNGuz_GoFftkOA-93">
          <mxGeometry relative="1" as="geometry" />
        </mxCell>
        <mxCell id="24jjbkDNGuz_GoFftkOA-216" value="m" style="text;html=1;align=center;verticalAlign=middle;resizable=0;points=[];autosize=1;strokeColor=none;fillColor=none;" vertex="1" parent="24jjbkDNGuz_GoFftkOA-139">
          <mxGeometry x="-18.291844443154105" y="75" width="30" height="30" as="geometry" />
        </mxCell>
        <mxCell id="24jjbkDNGuz_GoFftkOA-239" value="m" style="text;html=1;align=center;verticalAlign=middle;resizable=0;points=[];autosize=1;strokeColor=none;fillColor=none;" vertex="1" parent="24jjbkDNGuz_GoFftkOA-139">
          <mxGeometry x="92.54815555684593" y="96" width="30" height="30" as="geometry" />
        </mxCell>
        <mxCell id="24jjbkDNGuz_GoFftkOA-141" value="had" style="rhombus;whiteSpace=wrap;html=1;" vertex="1" parent="24jjbkDNGuz_GoFftkOA-256">
          <mxGeometry x="221" y="846.0028969127152" width="40" height="30" as="geometry" />
        </mxCell>
        <mxCell id="24jjbkDNGuz_GoFftkOA-146" style="rounded=0;orthogonalLoop=1;jettySize=auto;html=1;exitX=0;exitY=0.5;exitDx=0;exitDy=0;entryX=0;entryY=0;entryDx=0;entryDy=0;endArrow=none;endFill=0;" edge="1" parent="24jjbkDNGuz_GoFftkOA-256" source="24jjbkDNGuz_GoFftkOA-144" target="24jjbkDNGuz_GoFftkOA-64">
          <mxGeometry relative="1" as="geometry" />
        </mxCell>
        <mxCell id="24jjbkDNGuz_GoFftkOA-144" value="put" style="rhombus;whiteSpace=wrap;html=1;" vertex="1" parent="24jjbkDNGuz_GoFftkOA-256">
          <mxGeometry x="76.06999999999994" y="665.0028969127152" width="40" height="30" as="geometry" />
        </mxCell>
        <mxCell id="24jjbkDNGuz_GoFftkOA-145" style="rounded=0;orthogonalLoop=1;jettySize=auto;html=1;exitX=0.25;exitY=1;exitDx=0;exitDy=0;entryX=1;entryY=0.5;entryDx=0;entryDy=0;endArrow=none;endFill=0;" edge="1" parent="24jjbkDNGuz_GoFftkOA-256" source="24jjbkDNGuz_GoFftkOA-2" target="24jjbkDNGuz_GoFftkOA-144">
          <mxGeometry relative="1" as="geometry" />
        </mxCell>
        <mxCell id="24jjbkDNGuz_GoFftkOA-147" style="rounded=0;orthogonalLoop=1;jettySize=auto;html=1;exitX=1;exitY=0.75;exitDx=0;exitDy=0;entryX=0;entryY=0.5;entryDx=0;entryDy=0;endArrow=none;endFill=0;" edge="1" parent="24jjbkDNGuz_GoFftkOA-256" source="24jjbkDNGuz_GoFftkOA-65" target="24jjbkDNGuz_GoFftkOA-141">
          <mxGeometry relative="1" as="geometry" />
        </mxCell>
        <mxCell id="24jjbkDNGuz_GoFftkOA-148" style="rounded=0;orthogonalLoop=1;jettySize=auto;html=1;exitX=0;exitY=1;exitDx=0;exitDy=0;entryX=1;entryY=0.5;entryDx=0;entryDy=0;endArrow=none;endFill=0;" edge="1" parent="24jjbkDNGuz_GoFftkOA-256" source="24jjbkDNGuz_GoFftkOA-30" target="24jjbkDNGuz_GoFftkOA-141">
          <mxGeometry relative="1" as="geometry" />
        </mxCell>
        <mxCell id="24jjbkDNGuz_GoFftkOA-150" style="rounded=0;orthogonalLoop=1;jettySize=auto;html=1;exitX=1;exitY=0.5;exitDx=0;exitDy=0;entryX=0;entryY=0.5;entryDx=0;entryDy=0;endArrow=none;endFill=0;" edge="1" parent="24jjbkDNGuz_GoFftkOA-256" source="24jjbkDNGuz_GoFftkOA-64" target="24jjbkDNGuz_GoFftkOA-140">
          <mxGeometry relative="1" as="geometry" />
        </mxCell>
        <mxCell id="24jjbkDNGuz_GoFftkOA-161" value="" style="group" vertex="1" connectable="0" parent="24jjbkDNGuz_GoFftkOA-256">
          <mxGeometry x="491.99421527715685" y="359.001944531763" width="140.0010098363898" height="108.89047619047619" as="geometry" />
        </mxCell>
        <mxCell id="24jjbkDNGuz_GoFftkOA-61" value="Chat" style="rounded=0;whiteSpace=wrap;html=1;" vertex="1" parent="24jjbkDNGuz_GoFftkOA-161">
          <mxGeometry x="20" y="40.47" width="64.9" height="25.69" as="geometry" />
        </mxCell>
        <mxCell id="24jjbkDNGuz_GoFftkOA-80" value="&lt;u&gt;&lt;font style=&quot;font-size: 11px;&quot;&gt;chatId&lt;/font&gt;&lt;/u&gt;" style="ellipse;whiteSpace=wrap;html=1;rotation=-5;" vertex="1" parent="24jjbkDNGuz_GoFftkOA-161">
          <mxGeometry x="33.0010098363898" y="4" width="60" height="22.73" as="geometry" />
        </mxCell>
        <mxCell id="24jjbkDNGuz_GoFftkOA-81" value="&lt;font style=&quot;font-size: 11px;&quot;&gt;chatMsg&lt;/font&gt;" style="ellipse;whiteSpace=wrap;html=1;rotation=5;" vertex="1" parent="24jjbkDNGuz_GoFftkOA-161">
          <mxGeometry x="34.93644972447112" y="91.16428571428582" width="62.962779892244576" height="22.726190476190478" as="geometry" />
        </mxCell>
        <mxCell id="24jjbkDNGuz_GoFftkOA-82" value="&lt;font style=&quot;font-size: 11px;&quot;&gt;date&lt;/font&gt;" style="ellipse;whiteSpace=wrap;html=1;rotation=-5;" vertex="1" parent="24jjbkDNGuz_GoFftkOA-161">
          <mxGeometry x="75.66" y="70.17" width="49.22" height="19.84" as="geometry" />
        </mxCell>
        <mxCell id="24jjbkDNGuz_GoFftkOA-83" value="&lt;font style=&quot;font-size: 11px;&quot;&gt;time&lt;/font&gt;" style="ellipse;whiteSpace=wrap;html=1;rotation=5;" vertex="1" parent="24jjbkDNGuz_GoFftkOA-161">
          <mxGeometry x="85.9" y="20" width="45.1" height="22.62" as="geometry" />
        </mxCell>
        <mxCell id="24jjbkDNGuz_GoFftkOA-157" style="rounded=0;orthogonalLoop=1;jettySize=auto;html=1;exitX=0.75;exitY=0;exitDx=0;exitDy=0;entryX=0.5;entryY=1;entryDx=0;entryDy=0;endArrow=none;endFill=0;" edge="1" parent="24jjbkDNGuz_GoFftkOA-161" source="24jjbkDNGuz_GoFftkOA-61" target="24jjbkDNGuz_GoFftkOA-80">
          <mxGeometry relative="1" as="geometry" />
        </mxCell>
        <mxCell id="24jjbkDNGuz_GoFftkOA-158" style="rounded=0;orthogonalLoop=1;jettySize=auto;html=1;exitX=0.75;exitY=1;exitDx=0;exitDy=0;entryX=0.5;entryY=0;entryDx=0;entryDy=0;endArrow=none;endFill=0;" edge="1" parent="24jjbkDNGuz_GoFftkOA-161" source="24jjbkDNGuz_GoFftkOA-61" target="24jjbkDNGuz_GoFftkOA-81">
          <mxGeometry relative="1" as="geometry" />
        </mxCell>
        <mxCell id="24jjbkDNGuz_GoFftkOA-155" style="rounded=0;orthogonalLoop=1;jettySize=auto;html=1;exitX=1;exitY=1;exitDx=0;exitDy=0;entryX=0.5;entryY=0;entryDx=0;entryDy=0;endArrow=none;endFill=0;" edge="1" parent="24jjbkDNGuz_GoFftkOA-161" source="24jjbkDNGuz_GoFftkOA-61" target="24jjbkDNGuz_GoFftkOA-82">
          <mxGeometry relative="1" as="geometry" />
        </mxCell>
        <mxCell id="24jjbkDNGuz_GoFftkOA-156" style="rounded=0;orthogonalLoop=1;jettySize=auto;html=1;exitX=1;exitY=0;exitDx=0;exitDy=0;entryX=0;entryY=1;entryDx=0;entryDy=0;endArrow=none;endFill=0;" edge="1" parent="24jjbkDNGuz_GoFftkOA-161" source="24jjbkDNGuz_GoFftkOA-61" target="24jjbkDNGuz_GoFftkOA-83">
          <mxGeometry relative="1" as="geometry" />
        </mxCell>
        <mxCell id="24jjbkDNGuz_GoFftkOA-213" value="m" style="text;html=1;align=center;verticalAlign=middle;resizable=0;points=[];autosize=1;strokeColor=none;fillColor=none;" vertex="1" parent="24jjbkDNGuz_GoFftkOA-161">
          <mxGeometry x="15.001009836389812" y="17.61999999999989" width="30" height="30" as="geometry" />
        </mxCell>
        <mxCell id="24jjbkDNGuz_GoFftkOA-234" value="m" style="text;html=1;align=center;verticalAlign=middle;resizable=0;points=[];autosize=1;strokeColor=none;fillColor=none;" vertex="1" parent="24jjbkDNGuz_GoFftkOA-161">
          <mxGeometry x="15.001009836389812" y="58.16000000000008" width="30" height="30" as="geometry" />
        </mxCell>
        <mxCell id="24jjbkDNGuz_GoFftkOA-165" value="" style="group" vertex="1" connectable="0" parent="24jjbkDNGuz_GoFftkOA-256">
          <mxGeometry x="670.9952251135467" y="375.8819445317631" width="75.66739837022891" height="81.6966192633472" as="geometry" />
        </mxCell>
        <mxCell id="24jjbkDNGuz_GoFftkOA-69" value="Issue" style="rounded=0;whiteSpace=wrap;html=1;" vertex="1" parent="24jjbkDNGuz_GoFftkOA-165">
          <mxGeometry y="24.11999999999989" width="53.7" height="25.69" as="geometry" />
        </mxCell>
        <mxCell id="24jjbkDNGuz_GoFftkOA-88" value="&lt;u&gt;&lt;font style=&quot;font-size: 11px;&quot;&gt;issueId&lt;/font&gt;&lt;/u&gt;" style="ellipse;whiteSpace=wrap;html=1;rotation=-5;" vertex="1" parent="24jjbkDNGuz_GoFftkOA-165">
          <mxGeometry x="31.909999999999968" y="59.11999999999989" width="60" height="20" as="geometry" />
        </mxCell>
        <mxCell id="24jjbkDNGuz_GoFftkOA-89" value="&lt;font style=&quot;font-size: 11px;&quot;&gt;date&lt;/font&gt;" style="ellipse;whiteSpace=wrap;html=1;" vertex="1" parent="24jjbkDNGuz_GoFftkOA-165">
          <mxGeometry x="35.879999999999995" width="39.03" height="16.82" as="geometry" />
        </mxCell>
        <mxCell id="24jjbkDNGuz_GoFftkOA-162" style="rounded=0;orthogonalLoop=1;jettySize=auto;html=1;exitX=0.75;exitY=1;exitDx=0;exitDy=0;entryX=0.5;entryY=0;entryDx=0;entryDy=0;endArrow=none;endFill=0;" edge="1" parent="24jjbkDNGuz_GoFftkOA-165" source="24jjbkDNGuz_GoFftkOA-69" target="24jjbkDNGuz_GoFftkOA-88">
          <mxGeometry relative="1" as="geometry" />
        </mxCell>
        <mxCell id="24jjbkDNGuz_GoFftkOA-163" style="rounded=0;orthogonalLoop=1;jettySize=auto;html=1;exitX=0.75;exitY=0;exitDx=0;exitDy=0;entryX=0.5;entryY=1;entryDx=0;entryDy=0;endArrow=none;endFill=0;" edge="1" parent="24jjbkDNGuz_GoFftkOA-165" source="24jjbkDNGuz_GoFftkOA-69" target="24jjbkDNGuz_GoFftkOA-89">
          <mxGeometry relative="1" as="geometry" />
        </mxCell>
        <mxCell id="24jjbkDNGuz_GoFftkOA-212" value="m" style="text;html=1;align=center;verticalAlign=middle;resizable=0;points=[];autosize=1;strokeColor=none;fillColor=none;" vertex="1" parent="24jjbkDNGuz_GoFftkOA-165">
          <mxGeometry x="-7.000000000000028" y="0.8199999999999363" width="30" height="30" as="geometry" />
        </mxCell>
        <mxCell id="24jjbkDNGuz_GoFftkOA-233" value="m" style="text;html=1;align=center;verticalAlign=middle;resizable=0;points=[];autosize=1;strokeColor=none;fillColor=none;" vertex="1" parent="24jjbkDNGuz_GoFftkOA-165">
          <mxGeometry x="-10.000000000000028" y="41.11999999999989" width="30" height="30" as="geometry" />
        </mxCell>
        <mxCell id="24jjbkDNGuz_GoFftkOA-238" value="m" style="text;html=1;align=center;verticalAlign=middle;resizable=0;points=[];autosize=1;strokeColor=none;fillColor=none;" vertex="1" parent="24jjbkDNGuz_GoFftkOA-165">
          <mxGeometry x="5.849999999999966" y="41.11999999999989" width="30" height="30" as="geometry" />
        </mxCell>
        <mxCell id="24jjbkDNGuz_GoFftkOA-169" value="" style="group" vertex="1" connectable="0" parent="24jjbkDNGuz_GoFftkOA-256">
          <mxGeometry x="355.89522511354664" y="349.17774349870615" width="120.16840138191947" height="114.71467722353282" as="geometry" />
        </mxCell>
        <mxCell id="24jjbkDNGuz_GoFftkOA-70" value="Fine" style="rounded=0;whiteSpace=wrap;html=1;" vertex="1" parent="24jjbkDNGuz_GoFftkOA-169">
          <mxGeometry x="-4" y="51.42420103305676" width="75.1" height="28.4" as="geometry" />
        </mxCell>
        <mxCell id="24jjbkDNGuz_GoFftkOA-84" value="&lt;u&gt;&lt;font style=&quot;font-size: 11px;&quot;&gt;fineId&lt;/font&gt;&lt;/u&gt;" style="ellipse;whiteSpace=wrap;html=1;rotation=15;" vertex="1" parent="24jjbkDNGuz_GoFftkOA-169">
          <mxGeometry x="58.200000000000045" y="26.614201033056816" width="60.05" height="22.73" as="geometry" />
        </mxCell>
        <mxCell id="24jjbkDNGuz_GoFftkOA-85" value="&lt;font style=&quot;font-size: 11px;&quot;&gt;status&lt;/font&gt;" style="ellipse;whiteSpace=wrap;html=1;rotation=-5;" vertex="1" parent="24jjbkDNGuz_GoFftkOA-169">
          <mxGeometry x="24.150000000000034" y="0.26420103305690645" width="52.95" height="22.73" as="geometry" />
        </mxCell>
        <mxCell id="24jjbkDNGuz_GoFftkOA-86" value="&lt;font style=&quot;font-size: 11px;&quot;&gt;amount&lt;/font&gt;" style="ellipse;whiteSpace=wrap;html=1;" vertex="1" parent="24jjbkDNGuz_GoFftkOA-169">
          <mxGeometry x="36.09543988808139" y="91.98848674734245" width="62.962779892244576" height="22.726190476190478" as="geometry" />
        </mxCell>
        <mxCell id="24jjbkDNGuz_GoFftkOA-167" style="rounded=0;orthogonalLoop=1;jettySize=auto;html=1;exitX=1;exitY=0;exitDx=0;exitDy=0;entryX=0.5;entryY=1;entryDx=0;entryDy=0;endArrow=none;endFill=0;" edge="1" parent="24jjbkDNGuz_GoFftkOA-169" source="24jjbkDNGuz_GoFftkOA-70" target="24jjbkDNGuz_GoFftkOA-84">
          <mxGeometry relative="1" as="geometry" />
        </mxCell>
        <mxCell id="24jjbkDNGuz_GoFftkOA-166" style="rounded=0;orthogonalLoop=1;jettySize=auto;html=1;exitX=0.5;exitY=0;exitDx=0;exitDy=0;entryX=0.5;entryY=1;entryDx=0;entryDy=0;endArrow=none;endFill=0;" edge="1" parent="24jjbkDNGuz_GoFftkOA-169" source="24jjbkDNGuz_GoFftkOA-70" target="24jjbkDNGuz_GoFftkOA-85">
          <mxGeometry relative="1" as="geometry" />
        </mxCell>
        <mxCell id="24jjbkDNGuz_GoFftkOA-168" style="rounded=0;orthogonalLoop=1;jettySize=auto;html=1;exitX=0.75;exitY=1;exitDx=0;exitDy=0;entryX=0.5;entryY=0;entryDx=0;entryDy=0;endArrow=none;endFill=0;" edge="1" parent="24jjbkDNGuz_GoFftkOA-169" source="24jjbkDNGuz_GoFftkOA-70" target="24jjbkDNGuz_GoFftkOA-86">
          <mxGeometry relative="1" as="geometry" />
        </mxCell>
        <mxCell id="24jjbkDNGuz_GoFftkOA-211" value="m" style="text;html=1;align=center;verticalAlign=middle;resizable=0;points=[];autosize=1;strokeColor=none;fillColor=none;" vertex="1" parent="24jjbkDNGuz_GoFftkOA-169">
          <mxGeometry x="-7.849999999999966" y="27.824201033056852" width="30" height="30" as="geometry" />
        </mxCell>
        <mxCell id="24jjbkDNGuz_GoFftkOA-235" value="m" style="text;html=1;align=center;verticalAlign=middle;resizable=0;points=[];autosize=1;strokeColor=none;fillColor=none;" vertex="1" parent="24jjbkDNGuz_GoFftkOA-169">
          <mxGeometry x="-8" y="71.82420103305685" width="30" height="30" as="geometry" />
        </mxCell>
        <mxCell id="24jjbkDNGuz_GoFftkOA-200" style="rounded=0;orthogonalLoop=1;jettySize=auto;html=1;exitX=0.5;exitY=1;exitDx=0;exitDy=0;entryX=0;entryY=0;entryDx=0;entryDy=0;endArrow=none;endFill=0;" edge="1" parent="24jjbkDNGuz_GoFftkOA-256" source="24jjbkDNGuz_GoFftkOA-170" target="24jjbkDNGuz_GoFftkOA-70">
          <mxGeometry relative="1" as="geometry" />
        </mxCell>
        <mxCell id="24jjbkDNGuz_GoFftkOA-170" value="put" style="rhombus;whiteSpace=wrap;html=1;" vertex="1" parent="24jjbkDNGuz_GoFftkOA-256">
          <mxGeometry x="331" y="305.0028969127152" width="44" height="30" as="geometry" />
        </mxCell>
        <mxCell id="24jjbkDNGuz_GoFftkOA-201" style="rounded=0;orthogonalLoop=1;jettySize=auto;html=1;exitX=1;exitY=0.5;exitDx=0;exitDy=0;entryX=0;entryY=0;entryDx=0;entryDy=0;endArrow=none;endFill=0;" edge="1" parent="24jjbkDNGuz_GoFftkOA-256" source="24jjbkDNGuz_GoFftkOA-171" target="24jjbkDNGuz_GoFftkOA-61">
          <mxGeometry relative="1" as="geometry" />
        </mxCell>
        <mxCell id="24jjbkDNGuz_GoFftkOA-202" style="rounded=0;orthogonalLoop=1;jettySize=auto;html=1;exitX=0;exitY=0.5;exitDx=0;exitDy=0;entryX=1;entryY=1;entryDx=0;entryDy=0;endArrow=none;endFill=0;" edge="1" parent="24jjbkDNGuz_GoFftkOA-256" source="24jjbkDNGuz_GoFftkOA-171" target="24jjbkDNGuz_GoFftkOA-68">
          <mxGeometry relative="1" as="geometry" />
        </mxCell>
        <mxCell id="24jjbkDNGuz_GoFftkOA-171" value="make" style="rhombus;whiteSpace=wrap;html=1;" vertex="1" parent="24jjbkDNGuz_GoFftkOA-256">
          <mxGeometry x="467.98999999999995" y="284.0028969127152" width="44" height="30" as="geometry" />
        </mxCell>
        <mxCell id="24jjbkDNGuz_GoFftkOA-172" value="had" style="rhombus;whiteSpace=wrap;html=1;" vertex="1" parent="24jjbkDNGuz_GoFftkOA-256">
          <mxGeometry x="571" y="210.0028969127152" width="44" height="30" as="geometry" />
        </mxCell>
        <mxCell id="24jjbkDNGuz_GoFftkOA-186" style="rounded=0;orthogonalLoop=1;jettySize=auto;html=1;exitX=0.5;exitY=1;exitDx=0;exitDy=0;entryX=0.25;entryY=0;entryDx=0;entryDy=0;endArrow=none;endFill=0;" edge="1" parent="24jjbkDNGuz_GoFftkOA-256" source="24jjbkDNGuz_GoFftkOA-173" target="24jjbkDNGuz_GoFftkOA-71">
          <mxGeometry relative="1" as="geometry" />
        </mxCell>
        <mxCell id="24jjbkDNGuz_GoFftkOA-173" value="had" style="rhombus;whiteSpace=wrap;html=1;" vertex="1" parent="24jjbkDNGuz_GoFftkOA-256">
          <mxGeometry x="328.99" y="503.0028969127152" width="44" height="30" as="geometry" />
        </mxCell>
        <mxCell id="24jjbkDNGuz_GoFftkOA-183" style="rounded=0;orthogonalLoop=1;jettySize=auto;html=1;entryX=0;entryY=1;entryDx=0;entryDy=0;endArrow=none;endFill=0;exitX=1;exitY=0.5;exitDx=0;exitDy=0;" edge="1" parent="24jjbkDNGuz_GoFftkOA-256" source="24jjbkDNGuz_GoFftkOA-174" target="24jjbkDNGuz_GoFftkOA-61">
          <mxGeometry relative="1" as="geometry" />
        </mxCell>
        <mxCell id="24jjbkDNGuz_GoFftkOA-184" style="rounded=0;orthogonalLoop=1;jettySize=auto;html=1;exitX=0;exitY=0.5;exitDx=0;exitDy=0;entryX=1;entryY=0;entryDx=0;entryDy=0;endArrow=none;endFill=0;" edge="1" parent="24jjbkDNGuz_GoFftkOA-256" source="24jjbkDNGuz_GoFftkOA-174" target="24jjbkDNGuz_GoFftkOA-71">
          <mxGeometry relative="1" as="geometry" />
        </mxCell>
        <mxCell id="24jjbkDNGuz_GoFftkOA-174" value="had" style="rhombus;whiteSpace=wrap;html=1;" vertex="1" parent="24jjbkDNGuz_GoFftkOA-256">
          <mxGeometry x="467.47" y="524.0028969127152" width="44" height="30" as="geometry" />
        </mxCell>
        <mxCell id="24jjbkDNGuz_GoFftkOA-175" value="had" style="rhombus;whiteSpace=wrap;html=1;" vertex="1" parent="24jjbkDNGuz_GoFftkOA-256">
          <mxGeometry x="570" y="598.8528969127151" width="44" height="30" as="geometry" />
        </mxCell>
        <mxCell id="24jjbkDNGuz_GoFftkOA-177" value="had" style="rhombus;whiteSpace=wrap;html=1;" vertex="1" parent="24jjbkDNGuz_GoFftkOA-256">
          <mxGeometry x="636" y="649.0028969127152" width="44" height="30" as="geometry" />
        </mxCell>
        <mxCell id="24jjbkDNGuz_GoFftkOA-178" style="rounded=0;orthogonalLoop=1;jettySize=auto;html=1;exitX=0.25;exitY=1;exitDx=0;exitDy=0;entryX=1;entryY=0.5;entryDx=0;entryDy=0;endArrow=none;endFill=0;" edge="1" parent="24jjbkDNGuz_GoFftkOA-256" source="24jjbkDNGuz_GoFftkOA-69" target="24jjbkDNGuz_GoFftkOA-177">
          <mxGeometry relative="1" as="geometry" />
        </mxCell>
        <mxCell id="24jjbkDNGuz_GoFftkOA-179" style="rounded=0;orthogonalLoop=1;jettySize=auto;html=1;exitX=0;exitY=1;exitDx=0;exitDy=0;entryX=1;entryY=0.5;entryDx=0;entryDy=0;endArrow=none;endFill=0;" edge="1" parent="24jjbkDNGuz_GoFftkOA-256" source="24jjbkDNGuz_GoFftkOA-69" target="24jjbkDNGuz_GoFftkOA-175">
          <mxGeometry relative="1" as="geometry" />
        </mxCell>
        <mxCell id="24jjbkDNGuz_GoFftkOA-181" style="rounded=0;orthogonalLoop=1;jettySize=auto;html=1;exitX=1;exitY=0;exitDx=0;exitDy=0;entryX=0;entryY=0.5;entryDx=0;entryDy=0;endArrow=none;endFill=0;" edge="1" parent="24jjbkDNGuz_GoFftkOA-256" source="24jjbkDNGuz_GoFftkOA-30" target="24jjbkDNGuz_GoFftkOA-177">
          <mxGeometry relative="1" as="geometry" />
        </mxCell>
        <mxCell id="24jjbkDNGuz_GoFftkOA-185" style="rounded=0;orthogonalLoop=1;jettySize=auto;html=1;exitX=0;exitY=1;exitDx=0;exitDy=0;entryX=0.5;entryY=0;entryDx=0;entryDy=0;endArrow=none;endFill=0;" edge="1" parent="24jjbkDNGuz_GoFftkOA-256" source="24jjbkDNGuz_GoFftkOA-70" target="24jjbkDNGuz_GoFftkOA-173">
          <mxGeometry relative="1" as="geometry" />
        </mxCell>
        <mxCell id="24jjbkDNGuz_GoFftkOA-189" value="" style="group" vertex="1" connectable="0" parent="24jjbkDNGuz_GoFftkOA-256">
          <mxGeometry x="155.98578794241234" y="599.0033731031917" width="124.00943717113432" height="81.8825268331334" as="geometry" />
        </mxCell>
        <mxCell id="24jjbkDNGuz_GoFftkOA-60" value="Reservation" style="rounded=0;whiteSpace=wrap;html=1;" vertex="1" parent="24jjbkDNGuz_GoFftkOA-189">
          <mxGeometry x="35.83842733474444" width="84.90435470317829" height="25.69047619047619" as="geometry" />
        </mxCell>
        <mxCell id="24jjbkDNGuz_GoFftkOA-90" value="&lt;u&gt;&lt;font style=&quot;font-size: 11px;&quot;&gt;reservstionId&lt;/font&gt;&lt;/u&gt;" style="ellipse;whiteSpace=wrap;html=1;rotation=-5;" vertex="1" parent="24jjbkDNGuz_GoFftkOA-189">
          <mxGeometry x="25.839437171134364" y="57.99857142857127" width="90" height="20" as="geometry" />
        </mxCell>
        <mxCell id="24jjbkDNGuz_GoFftkOA-91" value="&lt;font style=&quot;font-size: 11px;&quot;&gt;status&lt;/font&gt;" style="ellipse;whiteSpace=wrap;html=1;rotation=5;" vertex="1" parent="24jjbkDNGuz_GoFftkOA-189">
          <mxGeometry x="0.8894371711343183" y="34.208571428571304" width="53.13" height="22.73" as="geometry" />
        </mxCell>
        <mxCell id="24jjbkDNGuz_GoFftkOA-188" style="rounded=0;orthogonalLoop=1;jettySize=auto;html=1;exitX=0.5;exitY=0;exitDx=0;exitDy=0;entryX=0.25;entryY=1;entryDx=0;entryDy=0;endArrow=none;endFill=0;" edge="1" parent="24jjbkDNGuz_GoFftkOA-189" source="24jjbkDNGuz_GoFftkOA-90" target="24jjbkDNGuz_GoFftkOA-60">
          <mxGeometry relative="1" as="geometry" />
        </mxCell>
        <mxCell id="24jjbkDNGuz_GoFftkOA-187" style="rounded=0;orthogonalLoop=1;jettySize=auto;html=1;exitX=0;exitY=0.75;exitDx=0;exitDy=0;entryX=0.5;entryY=0;entryDx=0;entryDy=0;endArrow=none;endFill=0;" edge="1" parent="24jjbkDNGuz_GoFftkOA-189" source="24jjbkDNGuz_GoFftkOA-60" target="24jjbkDNGuz_GoFftkOA-91">
          <mxGeometry relative="1" as="geometry" />
        </mxCell>
        <mxCell id="24jjbkDNGuz_GoFftkOA-236" value="m" style="text;html=1;align=center;verticalAlign=middle;resizable=0;points=[];autosize=1;strokeColor=none;fillColor=none;" vertex="1" parent="24jjbkDNGuz_GoFftkOA-189">
          <mxGeometry x="103.00943717113432" y="18.688571428571322" width="30" height="30" as="geometry" />
        </mxCell>
        <mxCell id="24jjbkDNGuz_GoFftkOA-192" style="rounded=0;orthogonalLoop=1;jettySize=auto;html=1;exitX=0;exitY=0.5;exitDx=0;exitDy=0;entryX=0.5;entryY=1;entryDx=0;entryDy=0;endArrow=none;endFill=0;" edge="1" parent="24jjbkDNGuz_GoFftkOA-256" source="24jjbkDNGuz_GoFftkOA-190" target="24jjbkDNGuz_GoFftkOA-2">
          <mxGeometry relative="1" as="geometry" />
        </mxCell>
        <mxCell id="24jjbkDNGuz_GoFftkOA-190" value="make" style="rhombus;whiteSpace=wrap;html=1;" vertex="1" parent="24jjbkDNGuz_GoFftkOA-256">
          <mxGeometry x="180.83000000000004" y="504.0028969127152" width="44" height="30" as="geometry" />
        </mxCell>
        <mxCell id="24jjbkDNGuz_GoFftkOA-195" style="rounded=0;orthogonalLoop=1;jettySize=auto;html=1;exitX=1;exitY=0.5;exitDx=0;exitDy=0;entryX=0.25;entryY=0;entryDx=0;entryDy=0;endArrow=none;endFill=0;" edge="1" parent="24jjbkDNGuz_GoFftkOA-256" source="24jjbkDNGuz_GoFftkOA-191" target="24jjbkDNGuz_GoFftkOA-30">
          <mxGeometry relative="1" as="geometry" />
        </mxCell>
        <mxCell id="24jjbkDNGuz_GoFftkOA-191" value="had" style="rhombus;whiteSpace=wrap;html=1;" vertex="1" parent="24jjbkDNGuz_GoFftkOA-256">
          <mxGeometry x="325.9" y="679.0028969127152" width="44" height="30" as="geometry" />
        </mxCell>
        <mxCell id="24jjbkDNGuz_GoFftkOA-193" style="rounded=0;orthogonalLoop=1;jettySize=auto;html=1;exitX=1;exitY=0.5;exitDx=0;exitDy=0;entryX=0.372;entryY=0.054;entryDx=0;entryDy=0;entryPerimeter=0;endArrow=none;endFill=0;" edge="1" parent="24jjbkDNGuz_GoFftkOA-256" source="24jjbkDNGuz_GoFftkOA-190" target="24jjbkDNGuz_GoFftkOA-60">
          <mxGeometry relative="1" as="geometry" />
        </mxCell>
        <mxCell id="24jjbkDNGuz_GoFftkOA-194" style="rounded=0;orthogonalLoop=1;jettySize=auto;html=1;exitX=1;exitY=1;exitDx=0;exitDy=0;entryX=0;entryY=0.5;entryDx=0;entryDy=0;endArrow=none;endFill=0;" edge="1" parent="24jjbkDNGuz_GoFftkOA-256" source="24jjbkDNGuz_GoFftkOA-60" target="24jjbkDNGuz_GoFftkOA-191">
          <mxGeometry relative="1" as="geometry" />
        </mxCell>
        <mxCell id="24jjbkDNGuz_GoFftkOA-198" style="rounded=0;orthogonalLoop=1;jettySize=auto;html=1;exitX=0.5;exitY=0;exitDx=0;exitDy=0;entryX=0.5;entryY=1;entryDx=0;entryDy=0;endArrow=none;endFill=0;" edge="1" parent="24jjbkDNGuz_GoFftkOA-256" source="24jjbkDNGuz_GoFftkOA-196" target="24jjbkDNGuz_GoFftkOA-56">
          <mxGeometry relative="1" as="geometry" />
        </mxCell>
        <mxCell id="24jjbkDNGuz_GoFftkOA-203" style="rounded=0;orthogonalLoop=1;jettySize=auto;html=1;exitX=0;exitY=0;exitDx=0;exitDy=0;entryX=1;entryY=0.5;entryDx=0;entryDy=0;endArrow=none;endFill=0;" edge="1" parent="24jjbkDNGuz_GoFftkOA-256" source="24jjbkDNGuz_GoFftkOA-69" target="24jjbkDNGuz_GoFftkOA-172">
          <mxGeometry relative="1" as="geometry" />
        </mxCell>
        <mxCell id="24jjbkDNGuz_GoFftkOA-207" style="rounded=0;orthogonalLoop=1;jettySize=auto;html=1;exitX=1;exitY=0;exitDx=0;exitDy=0;entryX=0;entryY=1;entryDx=0;entryDy=0;endArrow=none;endFill=0;" edge="1" parent="24jjbkDNGuz_GoFftkOA-256" source="24jjbkDNGuz_GoFftkOA-205" target="24jjbkDNGuz_GoFftkOA-68">
          <mxGeometry relative="1" as="geometry" />
        </mxCell>
        <mxCell id="24jjbkDNGuz_GoFftkOA-208" style="rounded=0;orthogonalLoop=1;jettySize=auto;html=1;exitX=1;exitY=1;exitDx=0;exitDy=0;entryX=0;entryY=0;entryDx=0;entryDy=0;endArrow=none;endFill=0;" edge="1" parent="24jjbkDNGuz_GoFftkOA-256" source="24jjbkDNGuz_GoFftkOA-205" target="24jjbkDNGuz_GoFftkOA-71">
          <mxGeometry relative="1" as="geometry" />
        </mxCell>
        <mxCell id="24jjbkDNGuz_GoFftkOA-210" value="m" style="text;html=1;align=center;verticalAlign=middle;resizable=0;points=[];autosize=1;strokeColor=none;fillColor=none;" vertex="1" parent="24jjbkDNGuz_GoFftkOA-256">
          <mxGeometry x="155.99522511354667" y="134.001944531763" width="30" height="30" as="geometry" />
        </mxCell>
        <mxCell id="24jjbkDNGuz_GoFftkOA-215" value="m" style="text;html=1;align=center;verticalAlign=middle;resizable=0;points=[];autosize=1;strokeColor=none;fillColor=none;" vertex="1" parent="24jjbkDNGuz_GoFftkOA-256">
          <mxGeometry x="71.06522511354672" y="719.001944531763" width="30" height="30" as="geometry" />
        </mxCell>
        <mxCell id="24jjbkDNGuz_GoFftkOA-218" value="m" style="text;html=1;align=center;verticalAlign=middle;resizable=0;points=[];autosize=1;strokeColor=none;fillColor=none;" vertex="1" parent="24jjbkDNGuz_GoFftkOA-256">
          <mxGeometry x="83.14522511354664" y="148.001944531763" width="30" height="30" as="geometry" />
        </mxCell>
        <mxCell id="24jjbkDNGuz_GoFftkOA-219" value="m" style="text;html=1;align=center;verticalAlign=middle;resizable=0;points=[];autosize=1;strokeColor=none;fillColor=none;" vertex="1" parent="24jjbkDNGuz_GoFftkOA-256">
          <mxGeometry x="4.995225113546667" y="63.001944531763" width="30" height="30" as="geometry" />
        </mxCell>
        <mxCell id="24jjbkDNGuz_GoFftkOA-220" value="1" style="text;html=1;align=center;verticalAlign=middle;resizable=0;points=[];autosize=1;strokeColor=none;fillColor=none;" vertex="1" parent="24jjbkDNGuz_GoFftkOA-256">
          <mxGeometry x="410.89522511354664" y="219.001944531763" width="30" height="30" as="geometry" />
        </mxCell>
        <mxCell id="24jjbkDNGuz_GoFftkOA-221" value="1" style="text;html=1;align=center;verticalAlign=middle;resizable=0;points=[];autosize=1;strokeColor=none;fillColor=none;" vertex="1" parent="24jjbkDNGuz_GoFftkOA-256">
          <mxGeometry x="398.99522511354667" y="233.011944531763" width="30" height="30" as="geometry" />
        </mxCell>
        <mxCell id="24jjbkDNGuz_GoFftkOA-222" value="1" style="text;html=1;align=center;verticalAlign=middle;resizable=0;points=[];autosize=1;strokeColor=none;fillColor=none;" vertex="1" parent="24jjbkDNGuz_GoFftkOA-256">
          <mxGeometry x="344.89522511354664" y="232.011944531763" width="30" height="30" as="geometry" />
        </mxCell>
        <mxCell id="24jjbkDNGuz_GoFftkOA-214" value="m" style="text;html=1;align=center;verticalAlign=middle;resizable=0;points=[];autosize=1;strokeColor=none;fillColor=none;" vertex="1" parent="24jjbkDNGuz_GoFftkOA-256">
          <mxGeometry x="217.27522511354664" y="576.001944531763" width="30" height="30" as="geometry" />
        </mxCell>
        <mxCell id="24jjbkDNGuz_GoFftkOA-230" value="1" style="text;html=1;align=center;verticalAlign=middle;resizable=0;points=[];autosize=1;strokeColor=none;fillColor=none;" vertex="1" parent="24jjbkDNGuz_GoFftkOA-256">
          <mxGeometry x="407.89522511354664" y="590.001944531763" width="30" height="30" as="geometry" />
        </mxCell>
        <mxCell id="24jjbkDNGuz_GoFftkOA-231" value="1" style="text;html=1;align=center;verticalAlign=middle;resizable=0;points=[];autosize=1;strokeColor=none;fillColor=none;" vertex="1" parent="24jjbkDNGuz_GoFftkOA-256">
          <mxGeometry x="395.9252251135467" y="577.001944531763" width="30" height="30" as="geometry" />
        </mxCell>
        <mxCell id="24jjbkDNGuz_GoFftkOA-232" value="1" style="text;html=1;align=center;verticalAlign=middle;resizable=0;points=[];autosize=1;strokeColor=none;fillColor=none;" vertex="1" parent="24jjbkDNGuz_GoFftkOA-256">
          <mxGeometry x="342.99522511354667" y="577.001944531763" width="30" height="30" as="geometry" />
        </mxCell>
        <mxCell id="24jjbkDNGuz_GoFftkOA-237" value="m" style="text;html=1;align=center;verticalAlign=middle;resizable=0;points=[];autosize=1;strokeColor=none;fillColor=none;" vertex="1" parent="24jjbkDNGuz_GoFftkOA-256">
          <mxGeometry x="177.27522511354664" y="735.001944531763" width="30" height="30" as="geometry" />
        </mxCell>
        <mxCell id="24jjbkDNGuz_GoFftkOA-250" style="rounded=0;orthogonalLoop=1;jettySize=auto;html=1;exitX=1;exitY=0.5;exitDx=0;exitDy=0;entryX=0;entryY=1;entryDx=0;entryDy=0;endArrow=none;endFill=0;" edge="1" parent="24jjbkDNGuz_GoFftkOA-256" source="24jjbkDNGuz_GoFftkOA-248" target="24jjbkDNGuz_GoFftkOA-51">
          <mxGeometry relative="1" as="geometry" />
        </mxCell>
        <mxCell id="24jjbkDNGuz_GoFftkOA-257" value="&lt;font style=&quot;font-size: 45px;&quot;&gt;EER Diagram&lt;/font&gt;" style="text;html=1;align=center;verticalAlign=middle;resizable=0;points=[];autosize=1;strokeColor=none;fillColor=none;" vertex="1" parent="1">
          <mxGeometry x="-563" y="-2310" width="300" height="70" as="geometry" />
        </mxCell>
      </root>
    </mxGraphModel>
  </diagram>
</mxfile>
